<?xml version="1.0" encoding="UTF-8"?>
<svg xmlns="http://www.w3.org/2000/svg" viewBox="0 0 1100 560" width="1100" height="560" font-family="Helvetica, Arial, sans-serif">
  <rect width="1100" height="560" fill="white" stroke="black"/>
  <text x="36" y="42" font-size="22" font-weight="700">GHB-001 Chanter - Front View And Bore Section</text>
  <text x="36" y="66" font-size="12" fill="#444">Datum A = sole/bell end. Datum B = reed-seat axis. Drill tone holes undersize and tune by measurement.</text>
  <line x1="120" y1="180" x2="840" y2="180" stroke="#222" stroke-width="32" stroke-linecap="round"/>
  <line x1="120" y1="180" x2="840" y2="180" stroke="#fff" stroke-width="12" stroke-linecap="round"/>
  <line x1="120" y1="180" x2="840" y2="180" stroke="#777" stroke-width="1" stroke-dasharray="6 4"/>
  <text x="108" y="238" font-size="13">A</text>
  <circle cx="120" cy="232" r="12" fill="white" stroke="black"/>
  <text x="834" y="238" font-size="13">B</text>
  <circle cx="840" cy="232" r="12" fill="white" stroke="black"/>
  <g fill="black">
    <circle cx="337" cy="180" r="6"/><circle cx="404" cy="180" r="6"/><circle cx="463" cy="180" r="6"/><circle cx="508" cy="180" r="6"/>
    <circle cx="563" cy="180" r="6"/><circle cx="622" cy="180" r="6"/><circle cx="681" cy="180" r="6"/><circle cx="720" cy="150" r="5"/>
  </g>
  <g font-size="10" text-anchor="middle">
    <text x="337" y="146">H7</text><text x="404" y="146">H6</text><text x="463" y="146">H5</text><text x="508" y="146">H4</text>
    <text x="563" y="146">H3</text><text x="622" y="146">H2</text><text x="681" y="146">H1</text><text x="720" y="126">Thumb</text>
  </g>
  <line x1="120" y1="278" x2="840" y2="278" stroke="black"/>
  <line x1="120" y1="250" x2="120" y2="288" stroke="black"/><line x1="840" y1="250" x2="840" y2="288" stroke="black"/>
  <text x="480" y="270" font-size="13" text-anchor="middle">Physical chanter length 14.500 in; effective Low A length approx 14.073 in at 480 Hz</text>
  <path d="M120 360 L840 332 L840 386 L120 386 Z" fill="#f8f8f8" stroke="black" stroke-width="1.5"/>
  <path d="M120 370 L840 346" stroke="#777" stroke-width="1" stroke-dasharray="5 4"/>
  <text x="120" y="415" font-size="12">Section A-A: conical bore from approx 0.800 in bell to approx 0.157 in throat; final station table must be measured.</text>
  <rect x="870" y="330" width="190" height="170" fill="white" stroke="black"/>
  <text x="884" y="356" font-size="12" font-weight="700">Title Block</text>
  <text x="884" y="382" font-size="11">Instrument: GHB-001</text>
  <text x="884" y="404" font-size="11">Sheet: Chanter</text>
  <text x="884" y="426" font-size="11">Units: inches</text>
  <text x="884" y="448" font-size="11">Rev: v4 packet</text>
  <text x="884" y="470" font-size="11">Date: 2026-05-08</text>
</svg>
