<?xml version="1.0" encoding="UTF-8" standalone="no"?>
<svg xmlns="http://www.w3.org/2000/svg" viewBox="0 0 1600 1200" width="1600" height="1200">
  <defs>
    <!-- Background Gradient -->
    <radialGradient id="bgGrad" cx="50%" cy="50%" r="70%" fx="50%" fy="50%">
      <stop offset="0%" stop-color="#fdfdfd" />
      <stop offset="60%" stop-color="#f0f0f0" />
      <stop offset="100%" stop-color="#d8d8d8" />
    </radialGradient>

    <!-- Drop Shadows -->
    <filter id="softShadow" x="-20%" y="-20%" width="140%" height="140%">
      <feGaussianBlur in="SourceAlpha" stdDeviation="30" />
      <feOffset dx="10" dy="40" />
      <feComponentTransfer><feFuncA type="linear" slope="0.25"/></feComponentTransfer>
      <feMerge>
        <feMergeNode />
        <feMergeNode in="SourceGraphic" />
      </feMerge>
    </filter>
    
    <filter id="woodGlow" x="-10%" y="-10%" width="120%" height="120%">
      <feGaussianBlur stdDeviation="3" result="blur"/>
      <feComposite in="SourceGraphic" in2="blur" operator="over"/>
    </filter>

    <!-- Tartan Pattern (Plaid) -->
    <pattern id="tartanPattern" width="100" height="100" patternUnits="userSpaceOnUse" patternTransform="rotate(25)">
      <!-- Base color: muted wool forest green -->
      <rect width="100" height="100" fill="#2d5236" />
      
      <!-- Blue broad bands -->
      <rect x="0" y="0" width="100" height="40" fill="#1b2a47" opacity="0.6" />
      <rect x="0" y="0" width="40" height="100" fill="#1b2a47" opacity="0.6" />
      
      <!-- Black borders -->
      <rect x="38" y="0" width="4" height="100" fill="#0d0d0d" opacity="0.8" />
      <rect x="98" y="0" width="4" height="100" fill="#0d0d0d" opacity="0.8" />
      <rect x="0" y="38" width="100" height="4" fill="#0d0d0d" opacity="0.8" />
      <rect x="0" y="98" width="100" height="4" fill="#0d0d0d" opacity="0.8" />
      
      <!-- Red thin grid lines -->
      <rect x="20" y="0" width="2" height="100" fill="#8c1d1d" opacity="0.9" />
      <rect x="70" y="0" width="2" height="100" fill="#8c1d1d" opacity="0.9" />
      <rect x="0" y="20" width="100" height="2" fill="#8c1d1d" opacity="0.9" />
      <rect x="0" y="70" width="100" height="2" fill="#8c1d1d" opacity="0.9" />

      <!-- Yellow thin accent lines -->
      <rect x="50" y="0" width="1.5" height="100" fill="#d4af37" opacity="0.8" />
      <rect x="0" y="50" width="100" height="1.5" fill="#d4af37" opacity="0.8" />
    </pattern>

    <!-- Wood Gradients (African Blackwood satin oil finish) -->
    <linearGradient id="blackwoodGrad" x1="0%" y1="0%" x2="100%" y2="0%">
      <stop offset="0%" stop-color="#0b0b0a" />
      <stop offset="15%" stop-color="#2a2a28" />
      <stop offset="35%" stop-color="#3c3c39" />
      <stop offset="50%" stop-color="#1c1c1b" />
      <stop offset="85%" stop-color="#0e0e0d" />
      <stop offset="100%" stop-color="#050505" />
    </linearGradient>
    
    <linearGradient id="woodHighlight" x1="0%" y1="0%" x2="0%" y2="100%">
      <stop offset="0%" stop-color="#ffffff" stop-opacity="0.15" />
      <stop offset="50%" stop-color="#ffffff" stop-opacity="0.0" />
      <stop offset="100%" stop-color="#000000" stop-opacity="0.4" />
    </linearGradient>

    <!-- Delrin/Ivory Gradients -->
    <linearGradient id="ivoryGrad" x1="0%" y1="0%" x2="100%" y2="0%">
      <stop offset="0%" stop-color="#d3cbbe" />
      <stop offset="20%" stop-color="#faf6ee" />
      <stop offset="40%" stop-color="#fdfbf7" />
      <stop offset="70%" stop-color="#f2eae0" />
      <stop offset="90%" stop-color="#e0d6c5" />
      <stop offset="100%" stop-color="#c8bfae" />
    </linearGradient>

    <!-- Hemp/Thread Gradients -->
    <linearGradient id="hempGrad" x1="0%" y1="0%" x2="100%" y2="0%">
      <stop offset="0%" stop-color="#8c7a5c" />
      <stop offset="30%" stop-color="#cdaf85" />
      <stop offset="50%" stop-color="#dfcbab" />
      <stop offset="70%" stop-color="#be9f77" />
      <stop offset="100%" stop-color="#806b4d" />
    </linearGradient>

    <!-- Bag shading overlay -->
    <radialGradient id="bagShade" cx="45%" cy="45%" r="60%" fx="30%" fy="30%">
      <stop offset="0%" stop-color="#ffffff" stop-opacity="0.35" />
      <stop offset="50%" stop-color="#000000" stop-opacity="0.2" />
      <stop offset="80%" stop-color="#000000" stop-opacity="0.65" />
      <stop offset="100%" stop-color="#000000" stop-opacity="0.9" />
    </radialGradient>

    <!-- Stock / Bag Collar Cord -->
    <linearGradient id="cordGrad" x1="0%" y1="0%" x2="100%" y2="0%">
      <stop offset="0%" stop-color="#5c1313" />
      <stop offset="40%" stop-color="#ad2b2b" />
      <stop offset="70%" stop-color="#801a1a" />
      <stop offset="100%" stop-color="#3b0808" />
    </linearGradient>
  </defs>

  <!-- BACKGROUND -->
  <rect width="1600" height="1200" fill="url(#bgGrad)" />

  <!-- STUDIO FLOOR SHADOWS -->
  <g opacity="0.8" filter="blur(40px)">
    <!-- Shadow under the bag -->
    <ellipse cx="780" cy="850" rx="320" ry="120" fill="#5c5c5c" />
    <!-- Shadow under the drones -->
    <ellipse cx="1080" cy="650" rx="420" ry="80" fill="#666666" transform="rotate(-15, 1080, 650)" />
    <!-- Shadow under the chanter -->
    <ellipse cx="460" cy="1000" rx="180" ry="60" fill="#505050" />
  </g>

  <!-- ==================== MAIN BAGPIPE GROUP (Shadow Filter Applied) ==================== -->
  <g filter="url(#softShadow)">
    
    <!-- 1. BASS DRONE (Far background, rising high and back) -->
    <!-- Angles up and right at 58 degrees. Base stock center around (800, 715) -->
    <g id="bassDrone" transform="rotate(-32, 800, 715)">
      <!-- Stock -->
      <rect x="770" y="580" width="60" height="140" fill="url(#blackwoodGrad)" rx="3" />
      <rect x="765" y="700" width="70" height="15" fill="url(#ivoryGrad)" rx="2" />
      
      <!-- Hemp Tie-in wrapping at stock base -->
      <rect x="772" y="715" width="56" height="10" fill="url(#hempGrad)" />
      
      <!-- Stock ferrule (Ivory-look) -->
      <rect x="765" y="565" width="70" height="15" fill="url(#ivoryGrad)" rx="1" />
      <path d="M 765,580 L 835,580 L 830,565 L 770,565 Z" fill="url(#ivoryGrad)" opacity="0.3" />
      
      <!-- Drone Lower Joint -->
      <!-- Turned Wood section 1 -->
      <path d="M 772,565 C 772,520 774,480 774,380 L 826,380 C 826,480 828,520 828,565 Z" fill="url(#blackwoodGrad)" />
      <!-- Wood turned beads & coves on section 1 -->
      <rect x="770" y="540" width="60" height="10" fill="url(#blackwoodGrad)" rx="2" />
      <rect x="770" y="500" width="60" height="12" fill="url(#blackwoodGrad)" rx="2" />
      <!-- Joint 1 Ivory mount -->
      <rect x="760" y="365" width="80" height="18" fill="url(#ivoryGrad)" rx="2" />
      <ellipse cx="800" cy="365" rx="42" ry="5" fill="url(#ivoryGrad)" />
      
      <!-- Tuning Slide 1 (Hemp wrapped tenon) -->
      <rect x="782" y="325" width="36" height="40" fill="url(#hempGrad)" />
      <!-- Dark wood slide sleeve -->
      <rect x="776" y="270" width="48" height="55" fill="url(#blackwoodGrad)" />
      
      <!-- Middle Joint Wood section 2 -->
      <path d="M 776,270 L 776,140 L 824,140 L 824,270 Z" fill="url(#blackwoodGrad)" />
      <!-- Turned details on section 2 -->
      <rect x="772" y="240" width="56" height="10" fill="url(#blackwoodGrad)" rx="2" />
      <rect x="772" y="180" width="56" height="12" fill="url(#blackwoodGrad)" rx="2" />
      <!-- Joint 2 Ivory mount -->
      <rect x="762" y="125" width="76" height="18" fill="url(#ivoryGrad)" rx="2" />
      
      <!-- Tuning Slide 2 (Hemp wrapped tenon 2) -->
      <rect x="784" y="85" width="32" height="40" fill="url(#hempGrad)" />
      
      <!-- Upper Joint / Bass Top section -->
      <rect x="778" y="20" width="44" height="65" fill="url(#blackwoodGrad)" />
      <!-- Flared Bass Bell / Cap -->
      <path d="M 778,20 C 778,0 765,-20 755,-40 L 845,-40 C 835,-20 822,0 822,20 Z" fill="url(#blackwoodGrad)" />
      <!-- Wood beads on bell -->
      <rect x="765" y="0" width="70" height="10" fill="url(#blackwoodGrad)" rx="2" />
      <!-- Large Bell Ivory Cap -->
      <path d="M 752,-40 L 848,-40 C 852,-48 852,-55 840,-60 L 760,-60 C 748,-55 748,-48 752,-40 Z" fill="url(#ivoryGrad)" />
      <ellipse cx="800" cy="-60" rx="40" ry="6" fill="#111" /> <!-- Sound exit hole -->
    </g>

    
    <!-- 2. TENOR DRONE 1 (Middle background, behind bass and tenor 2) -->
    <!-- Angles up and right at 63 degrees. Stock center around (820, 725) -->
    <g id="tenorDrone1" transform="rotate(-27, 820, 725)">
      <!-- Stock -->
      <rect x="792" y="600" width="56" height="125" fill="url(#blackwoodGrad)" rx="3" />
      <rect x="787" y="710" width="66" height="15" fill="url(#ivoryGrad)" rx="2" />
      
      <!-- Stock Ivory ferrule -->
      <rect x="787" y="585" width="66" height="15" fill="url(#ivoryGrad)" rx="1" />
      
      <!-- Drone Lower Joint -->
      <path d="M 794,585 C 794,545 796,500 796,420 L 846,420 C 846,500 848,545 848,585 Z" fill="url(#blackwoodGrad)" />
      <rect x="792" y="555" width="60" height="8" fill="url(#blackwoodGrad)" rx="2" />
      <rect x="792" y="515" width="60" height="10" fill="url(#blackwoodGrad)" rx="2" />
      <!-- Joint Ivory Mount -->
      <rect x="782" y="405" width="78" height="18" fill="url(#ivoryGrad)" rx="2" />
      
      <!-- Tuning Slide (Hemped tenon) -->
      <rect x="804" y="365" width="32" height="40" fill="url(#hempGrad)" />
      
      <!-- Upper Section -->
      <rect x="798" y="260" width="44" height="105" fill="url(#blackwoodGrad)" />
      <!-- Wood beads -->
      <rect x="794" y="330" width="52" height="10" fill="url(#blackwoodGrad)" rx="2" />
      <rect x="794" y="295" width="52" height="10" fill="url(#blackwoodGrad)" rx="2" />
      
      <!-- Tenor Bell / Cap -->
      <path d="M 798,260 C 798,245 788,230 780,215 L 860,215 C 852,230 842,245 842,260 Z" fill="url(#blackwoodGrad)" />
      <rect x="788" y="240" width="64" height="8" fill="url(#blackwoodGrad)" rx="2" />
      
      <!-- Bell Ivory Cap -->
      <path d="M 778,215 L 862,215 C 865,210 865,202 855,198 L 785,198 C 775,202 775,210 778,215 Z" fill="url(#ivoryGrad)" />
      <ellipse cx="820" cy="198" rx="35" ry="5" fill="#111" />
    </g>


    <!-- 3. TENOR DRONE 2 (Foreground drone, angled lower and closer to viewer) -->
    <!-- Angles up and right at 68 degrees. Stock center around (860, 740) -->
    <g id="tenorDrone2" transform="rotate(-22, 860, 740)">
      <!-- Stock -->
      <rect x="832" y="615" width="56" height="125" fill="url(#blackwoodGrad)" rx="3" />
      <rect x="827" y="725" width="66" height="15" fill="url(#ivoryGrad)" rx="2" />
      
      <!-- Stock Ivory ferrule -->
      <rect x="827" y="600" width="66" height="15" fill="url(#ivoryGrad)" rx="1" />
      
      <!-- Drone Lower Joint -->
      <path d="M 834,600 C 834,560 836,515 836,440 L 886,440 C 886,515 888,560 888,600 Z" fill="url(#blackwoodGrad)" />
      <rect x="832" y="570" width="60" height="8" fill="url(#blackwoodGrad)" rx="2" />
      <rect x="832" y="530" width="60" height="10" fill="url(#blackwoodGrad)" rx="2" />
      <!-- Joint Ivory Mount -->
      <rect x="822" y="425" width="78" height="18" fill="url(#ivoryGrad)" rx="2" />
      
      <!-- Tuning Slide (Hemped tenon) -->
      <rect x="844" y="375" width="32" height="50" fill="url(#hempGrad)" />
      
      <!-- Upper Section -->
      <rect x="838" y="270" width="44" height="105" fill="url(#blackwoodGrad)" />
      <!-- Wood beads -->
      <rect x="834" y="340" width="52" height="10" fill="url(#blackwoodGrad)" rx="2" />
      <rect x="834" y="305" width="52" height="10" fill="url(#blackwoodGrad)" rx="2" />
      
      <!-- Tenor Bell / Cap -->
      <path d="M 838,270 C 838,255 828,240 820,225 L 900,225 C 892,240 882,255 882,270 Z" fill="url(#blackwoodGrad)" />
      <rect x="828" y="250" width="64" height="8" fill="url(#blackwoodGrad)" rx="2" />
      
      <!-- Bell Ivory Cap -->
      <path d="M 818,225 L 902,225 C 905,220 905,212 895,208 L 825,208 C 815,212 815,220 818,225 Z" fill="url(#ivoryGrad)" />
      <ellipse cx="860" cy="208" rx="35" ry="5" fill="#111" />
    </g>


    <!-- 4. BLOWPIPE (Left-side, angled up and left) -->
    <!-- Stock center around (650, 710), blowpipe angles out to the left -->
    <g id="blowpipe" transform="rotate(35, 650, 710)">
      <!-- Stock -->
      <rect x="622" y="580" width="56" height="130" fill="url(#blackwoodGrad)" rx="3" />
      <!-- Stock Ivory ferrule -->
      <rect x="617" y="565" width="66" height="15" fill="url(#ivoryGrad)" rx="1" />
      
      <!-- Blowpipe Tube (Turned wood) -->
      <path d="M 626,565 L 632,360 L 668,360 L 674,565 Z" fill="url(#blackwoodGrad)" />
      <!-- Wood beads -->
      <rect x="624" y="535" width="52" height="10" fill="url(#blackwoodGrad)" rx="2" />
      
      <!-- Blowpipe Mount (Ivory-look Delrin) -->
      <rect x="620" y="342" width="60" height="18" fill="url(#ivoryGrad)" rx="2" />
      
      <!-- Blowpipe Tip (Black plastic / Delrin mouthpiece) -->
      <path d="M 632,342 L 638,290 C 638,280 642,275 645,275 L 655,275 C 658,275 662,280 662,290 L 668,342 Z" fill="#1a1a1a" />
      <rect x="635" y="280" width="30" height="5" fill="#2d2d2d" rx="1" />
    </g>


    <!-- 5. TARTAN BAG (Central body of the instrument) -->
    <!-- The bag overlaps drone stocks and blowpipe stock bases -->
    <g id="tartanBag">
      <!-- Outer Bag Base -->
      <path d="M 480,680 
               C 460,560, 720,530, 940,580 
               C 1120,620, 1160,780, 980,850 
               C 800,910, 520,860, 480,680 Z" 
            fill="url(#tartanPattern)" />
      
      <!-- Bag Shading Overlay (Adds 3D volumetric shading) -->
      <path d="M 480,680 
               C 460,560, 720,530, 940,580 
               C 1120,620, 1160,780, 980,850 
               C 800,910, 520,860, 480,680 Z" 
            fill="url(#bagShade)" style="mix-blend-mode: multiply;" />

      <!-- Bag Folds / Wrinkles (Drawn with soft semi-transparent dark curves) -->
      <path d="M 520,630 C 580,600, 680,610, 740,650" fill="none" stroke="#000" stroke-width="8" stroke-linecap="round" opacity="0.3" filter="blur(8px)" />
      <path d="M 500,720 C 570,720, 680,750, 780,790" fill="none" stroke="#000" stroke-width="12" stroke-linecap="round" opacity="0.35" filter="blur(10px)" />
      <path d="M 750,820 C 840,840, 930,810, 980,740" fill="none" stroke="#000" stroke-width="10" stroke-linecap="round" opacity="0.3" filter="blur(8px)" />
      
      <!-- Highlights on the bag folds -->
      <path d="M 540,610 C 600,590, 700,595, 760,630" fill="none" stroke="#fff" stroke-width="4" stroke-linecap="round" opacity="0.2" filter="blur(4px)" />
      <path d="M 510,700 C 580,700, 690,730, 790,770" fill="none" stroke="#fff" stroke-width="6" stroke-linecap="round" opacity="0.18" filter="blur(5px)" />
      
      <!-- Hemp Tie-in details around the stocks emerging from the bag -->
      <!-- Bass Drone Stock Collar -->
      <path d="M 720,685 C 720,670, 760,655, 800,660 C 840,665, 850,685, 840,695 C 830,705, 770,700, 720,685 Z" fill="none" stroke="url(#cordGrad)" stroke-width="6" />
      <circle cx="755" cy="690" r="7" fill="url(#cordGrad)" />
      <circle cx="780" cy="695" r="7" fill="url(#cordGrad)" />
      <circle cx="805" cy="692" r="7" fill="url(#cordGrad)" />
      
      <!-- Tenor Drone Stock Collar -->
      <circle cx="830" cy="710" r="7" fill="url(#cordGrad)" />
      <circle cx="850" cy="715" r="7" fill="url(#cordGrad)" />
      
      <!-- Blowpipe Stock Collar -->
      <circle cx="615" cy="660" r="6" fill="url(#cordGrad)" />
      <circle cx="632" cy="670" r="6" fill="url(#cordGrad)" />
    </g>


    <!-- 6. CHANTER (Drops below the bag, angling down and left) -->
    <!-- Stock center around (550, 790), Chanter body drops down-left to around (380, 1100) -->
    <g id="melodyChanter">
      <!-- Chanter Stock (tied into the front of the bag) -->
      <g transform="rotate(50, 550, 790)">
        <rect x="522" y="680" width="56" height="120" fill="url(#blackwoodGrad)" rx="3" />
        <!-- Stock Ivory Ferrule -->
        <rect x="517" y="665" width="66" height="15" fill="url(#ivoryGrad)" rx="1" />
        <!-- Red cord around stock -->
        <rect x="520" y="780" width="60" height="10" fill="url(#cordGrad)" rx="2" opacity="0.9" />
      </g>
      
      <!-- Chanter Body (Turned Wood, tapering outwards towards bottom - conical bore) -->
      <!-- Angle is -64 degrees from stock (530, 830) to (380, 1100) -->
      <g transform="rotate(-64, 530, 830)">
        <!-- Top joint fitment -->
        <rect x="518" y="815" width="24" height="20" fill="url(#hempGrad)" />
        
        <!-- Chanter Stem (Tapered wood tube) -->
        <!-- Starts at width 32, flares to width 50 at sole joint -->
        <path d="M 514,835 L 505,1080 L 555,1080 L 546,835 Z" fill="url(#blackwoodGrad)" />
        
        <!-- Turning beads and decorative coves on Chanter stem -->
        <rect x="511" y="855" width="38" height="8" fill="url(#blackwoodGrad)" rx="2" />
        <rect x="509" y="890" width="42" height="10" fill="url(#blackwoodGrad)" rx="2" />
        
        <!-- Front Tone Holes (Slightly oval dark holes with wood-turned rims) -->
        <!-- Aligned down the center of the chanter -->
        <!-- Hole 1 -->
        <ellipse cx="530" cy="915" rx="4.5" ry="6" fill="#000" stroke="#2a1a08" stroke-width="1.5" />
        <ellipse cx="531" cy="914" rx="2" ry="3" fill="#3a3a3a" opacity="0.3" /> <!-- Highlight -->
        <!-- Hole 2 -->
        <ellipse cx="530" cy="940" rx="4.5" ry="6" fill="#000" stroke="#2a1a08" stroke-width="1.5" />
        <!-- Hole 3 -->
        <ellipse cx="530" cy="965" rx="5" ry="6.5" fill="#000" stroke="#2a1a08" stroke-width="1.5" />
        <!-- Hole 4 -->
        <ellipse cx="530" cy="990" rx="5" ry="6.5" fill="#000" stroke="#2a1a08" stroke-width="1.5" />
        <!-- Hole 5 -->
        <ellipse cx="530" cy="1015" rx="5" ry="6.5" fill="#000" stroke="#2a1a08" stroke-width="1.5" />
        <!-- Hole 6 -->
        <ellipse cx="530" cy="1040" rx="5" ry="6.5" fill="#000" stroke="#2a1a08" stroke-width="1.5" />
        <!-- Hole 7 (Lower hand pinky) -->
        <ellipse cx="534" cy="1065" rx="4.5" ry="6" fill="#000" stroke="#2a1a08" stroke-width="1.5" />
        
        <!-- Chanter Sole (Classic flared ivory-look Delrin bottom) -->
        <!-- Attaches to stem at 1080 -->
        <path d="M 505,1080 L 485,1125 C 480,1135 480,1140 500,1140 L 560,1140 C 580,1140 580,1135 575,1125 L 555,1080 Z" fill="url(#ivoryGrad)" />
        <!-- Flared sole bottom rim -->
        <ellipse cx="530" cy="1140" rx="45" ry="12" fill="url(#ivoryGrad)" />
        <ellipse cx="530" cy="1140" rx="30" ry="8" fill="#1b1b1b" /> <!-- Internal bore exit -->
      </g>
    </g>

    <!-- 7. DRONE CORDS & TASSELS (Traditional red woolen cords tying the three drones together) -->
    <!-- These cords loop around the drones to keep them spaced properly -->
    <g id="droneCords" opacity="0.95">
      <!-- Cord from Bass to Tenor 1 -->
      <path d="M 830,460 C 890,470, 930,490, 970,510" fill="none" stroke="url(#cordGrad)" stroke-width="8" stroke-linecap="round" />
      <path d="M 835,465 C 890,475, 930,495, 965,515" fill="none" stroke="#2a0505" stroke-width="2" stroke-linecap="round" opacity="0.5" />
      
      <!-- Cord from Tenor 1 to Tenor 2 -->
      <path d="M 975,515 C 1020,535, 1040,555, 1070,575" fill="none" stroke="url(#cordGrad)" stroke-width="8" stroke-linecap="round" />
      
      <!-- Tassels hanging down from cords -->
      <!-- Bass drone tassel -->
      <path d="M 825,470 C 820,490, 810,530, 815,550" fill="none" stroke="url(#cordGrad)" stroke-width="6" />
      <path d="M 815,550 L 805,610 L 825,610 Z" fill="url(#cordGrad)" />
      <!-- Tenor 1 drone tassel -->
      <path d="M 970,520 C 970,540, 965,580, 970,600" fill="none" stroke="url(#cordGrad)" stroke-width="6" />
      <path d="M 970,600 L 960,655 L 980,655 Z" fill="url(#cordGrad)" />
      <!-- Tenor 2 drone tassel -->
      <path d="M 1065,580 L 1065,660" fill="none" stroke="url(#cordGrad)" stroke-width="5" />
      <path d="M 1065,660 L 1055,715 L 1075,715 Z" fill="url(#cordGrad)" />
    </g>
    
  </g>
</svg>
