<svg xmlns="http://www.w3.org/2000/svg" width="560" height="384" font-family="monospace" font-size="14">
  <title>Great Highland Bagpipe Fingering Chart</title>
  <rect width="560" height="384" fill="#fffef8" rx="8"/>
  <text x="280" y="30" text-anchor="middle" font-size="18" font-weight="bold">Great Highland Bagpipe</text>
  <text x="280" y="52" text-anchor="middle" font-size="12" fill="#555">Highland chanter fingering chart, Low G to High A</text>
  <text x="28" y="76" font-weight="bold">Note</text><text x="120" y="76" font-weight="bold">Holes</text><text x="250" y="76" font-weight="bold">Use</text>
  <text x="28" y="92">G</text><text x="120" y="92">XOOOOO</text><text x="250" y="92">starter</text>
<text x="28" y="120">A</text><text x="120" y="120">XXOOOO</text><text x="250" y="120">starter</text>
<text x="28" y="148">B</text><text x="120" y="148">XXXOOO</text><text x="250" y="148">starter</text>
<text x="28" y="176">c</text><text x="120" y="176">XXXXOO</text><text x="250" y="176">starter</text>
<text x="28" y="204">d</text><text x="120" y="204">XXXXXO</text><text x="250" y="204">starter</text>
<text x="28" y="232">e</text><text x="120" y="232">XXXXXX</text><text x="250" y="232">starter</text>
<text x="28" y="260">f</text><text x="120" y="260">XOOOOO</text><text x="250" y="260">starter</text>
<text x="28" y="288">g</text><text x="120" y="288">XXOOOO</text><text x="250" y="288">starter</text>
<text x="28" y="316">a</text><text x="120" y="316">XXXOOO</text><text x="250" y="316">starter</text>
  <text x="28" y="350" fill="#555" font-size="12">X = covered/active, O = open/inactive. Prototype chart for L2 review.</text>
  <text x="28" y="368" fill="#555" font-size="12">Generated by sheet-music skill - Refs #1</text>
</svg>
